<svg width="255px" height="525px"
     viewBox="0.00 0.00 255.49 524.61" xmlns="http://www.w3.org/2000/svg">
<g id="graph0" class="graph" transform="scale(1.0 1.0) rotate(0) translate(4 520.6123)">
<title>%3</title>
<polygon fill="#ffffff" stroke="transparent" points="-4,4 -4,-520.6123 251.4874,-520.6123 251.4874,4 -4,4"/>
<!-- 0 -->
<g id="node1" class="node">
<title>0</title>
<ellipse fill="none" stroke="#000000" cx="123.7437" cy="-18" rx="27" ry="18"/>
</g>
<!-- 1 -->
<g id="node2" class="node">
<title>1</title>
<ellipse fill="none" stroke="#000000" cx="124.7437" cy="-489.7422" rx="63.7795" ry="26.7407"/>
<text text-anchor="middle" x="124.7437" y="-493.5422" font-family="Times,serif" font-size="14.00" fill="#000000">t~1 = 0</text>
<text text-anchor="middle" x="124.7437" y="-478.5422" font-family="Times,serif" font-size="14.00" fill="#000000">t~0 = a &gt; t~1</text>
</g>
<!-- 2 -->
<g id="node3" class="node">
<title>2</title>
<ellipse fill="none" stroke="#000000" cx="64.7437" cy="-393.8721" rx="51.1914" ry="18"/>
<text text-anchor="middle" x="64.7437" y="-390.1721" font-family="Times,serif" font-size="14.00" fill="#000000">t~2 = a + b</text>
</g>
<!-- 1&#45;&gt;2 -->
<g id="edge1" class="edge">
<title>1&#45;&gt;2</title>
<path fill="none" stroke="#000000" d="M108.3484,-463.5453C99.9474,-450.1218 89.7405,-433.813 81.3146,-420.3497"/>
<polygon fill="#000000" stroke="#000000" points="84.0819,-418.1739 75.8098,-411.5539 78.1481,-421.8875 84.0819,-418.1739"/>
<text text-anchor="middle" x="101.2437" y="-433.6721" font-family="Times,serif" font-size="14.00" fill="#000000">T</text>
</g>
<!-- 3 -->
<g id="node5" class="node">
<title>3</title>
<ellipse fill="none" stroke="#000000" cx="184.7437" cy="-393.8721" rx="50.8918" ry="18"/>
<text text-anchor="middle" x="184.7437" y="-390.1721" font-family="Times,serif" font-size="14.00" fill="#000000">t~3 = b * d</text>
</g>
<!-- 1&#45;&gt;3 -->
<g id="edge2" class="edge">
<title>1&#45;&gt;3</title>
<path fill="none" stroke="#000000" d="M141.139,-463.5453C149.54,-450.1218 159.7468,-433.813 168.1728,-420.3497"/>
<polygon fill="#000000" stroke="#000000" points="171.3393,-421.8875 173.6776,-411.5539 165.4055,-418.1739 171.3393,-421.8875"/>
<text text-anchor="middle" x="165.7437" y="-433.6721" font-family="Times,serif" font-size="14.00" fill="#000000">F</text>
</g>
<!-- 4 -->
<g id="node4" class="node">
<title>4</title>
<ellipse fill="none" stroke="#000000" cx="123.7437" cy="-205.9361" rx="123.9879" ry="132.8722"/>
<text text-anchor="middle" x="123.7437" y="-284.7361" font-family="Times,serif" font-size="14.00" fill="#000000">t~4 = a + b</text>
<text text-anchor="middle" x="123.7437" y="-269.7361" font-family="Times,serif" font-size="14.00" fill="#000000">t~5 = c * d</text>
<text text-anchor="middle" x="123.7437" y="-254.7361" font-family="Times,serif" font-size="14.00" fill="#000000">t~6 = t~4 &#45; t~5</text>
<text text-anchor="middle" x="123.7437" y="-239.7361" font-family="Times,serif" font-size="14.00" fill="#000000">t~7 = 4</text>
<text text-anchor="middle" x="123.7437" y="-224.7361" font-family="Times,serif" font-size="14.00" fill="#000000">t~8 = INT&#45;to&#45;ULONG t~7</text>
<text text-anchor="middle" x="123.7437" y="-209.7361" font-family="Times,serif" font-size="14.00" fill="#000000">t~9 = t~8 * veryLong</text>
<text text-anchor="middle" x="123.7437" y="-194.7361" font-family="Times,serif" font-size="14.00" fill="#000000">t~10 = 4</text>
<text text-anchor="middle" x="123.7437" y="-179.7361" font-family="Times,serif" font-size="14.00" fill="#000000">t~11 = INT&#45;to&#45;ULONG t~10</text>
<text text-anchor="middle" x="123.7437" y="-164.7361" font-family="Times,serif" font-size="14.00" fill="#000000">t~12 = t~11 * veryLong</text>
<text text-anchor="middle" x="123.7437" y="-149.7361" font-family="Times,serif" font-size="14.00" fill="#000000">t~13 = 4</text>
<text text-anchor="middle" x="123.7437" y="-134.7361" font-family="Times,serif" font-size="14.00" fill="#000000">t~14 = INT&#45;to&#45;ULONG t~13</text>
<text text-anchor="middle" x="123.7437" y="-119.7361" font-family="Times,serif" font-size="14.00" fill="#000000">t~15 = t~14 * veryLong</text>
</g>
<!-- 2&#45;&gt;4 -->
<g id="edge3" class="edge">
<title>2&#45;&gt;4</title>
<path fill="none" stroke="#000000" d="M70.4009,-375.852C73.2324,-366.8327 76.9392,-355.0252 81.0815,-341.8303"/>
<polygon fill="#000000" stroke="#000000" points="84.5125,-342.5865 84.1685,-331.9972 77.8339,-340.4898 84.5125,-342.5865"/>
</g>
<!-- 4&#45;&gt;0 -->
<g id="edge4" class="edge">
<title>4&#45;&gt;0</title>
<path fill="none" stroke="#000000" d="M123.7437,-72.8641C123.7437,-63.1974 123.7437,-54.2026 123.7437,-46.4076"/>
<polygon fill="#000000" stroke="#000000" points="127.2438,-46.2417 123.7437,-36.2417 120.2438,-46.2417 127.2438,-46.2417"/>
</g>
<!-- 3&#45;&gt;4 -->
<g id="edge5" class="edge">
<title>3&#45;&gt;4</title>
<path fill="none" stroke="#000000" d="M178.8948,-375.852C175.9146,-366.6705 171.9967,-354.5996 167.6205,-341.117"/>
<polygon fill="#000000" stroke="#000000" points="170.9399,-340.0066 164.5236,-331.5756 164.2818,-342.1677 170.9399,-340.0066"/>
</g>
</g>
</svg>
