<svg width="319px" height="433px"
     viewBox="0.00 0.00 319.07 432.55" xmlns="http://www.w3.org/2000/svg">
<g id="graph0" class="graph" transform="scale(1.0 1.0) rotate(0) translate(4 428.5462)">
<title>%3</title>
<polygon fill="#ffffff" stroke="transparent" points="-4,4 -4,-428.5462 315.0696,-428.5462 315.0696,4 -4,4"/>
<!-- 0 -->
<g id="node1" class="node">
<title>0</title>
<ellipse fill="none" stroke="#000000" cx="231.8736" cy="-208.0833" rx="79.3924" ry="26.7407"/>
<text text-anchor="middle" x="231.8736" y="-211.8833" font-family="Times,serif" font-size="14.00" fill="#000000">t~23 = 0</text>
<text text-anchor="middle" x="231.8736" y="-196.8833" font-family="Times,serif" font-size="14.00" fill="#000000">t~22 = a == t~23</text>
</g>
<!-- 1 -->
<g id="node2" class="node">
<title>1</title>
<ellipse fill="none" stroke="#000000" cx="176.8736" cy="-91" rx="38.1938" ry="18"/>
<text text-anchor="middle" x="176.8736" y="-87.3" font-family="Times,serif" font-size="14.00" fill="#000000">return b</text>
</g>
<!-- 0&#45;&gt;1 -->
<g id="edge1" class="edge">
<title>0&#45;&gt;1</title>
<path fill="none" stroke="#000000" d="M219.3933,-181.5153C210.4459,-162.4683 198.4386,-136.9073 189.4659,-117.8063"/>
<polygon fill="#000000" stroke="#000000" points="192.627,-116.3037 185.2073,-108.7407 186.2913,-119.2799 192.627,-116.3037"/>
<text text-anchor="middle" x="203.3736" y="-130.8" font-family="Times,serif" font-size="14.00" fill="#000000">T</text>
</g>
<!-- 5 -->
<g id="node4" class="node">
<title>5</title>
<ellipse fill="none" stroke="#000000" cx="271.8736" cy="-91" rx="38.1938" ry="18"/>
<text text-anchor="middle" x="271.8736" y="-87.3" font-family="Times,serif" font-size="14.00" fill="#000000">return a</text>
</g>
<!-- 0&#45;&gt;5 -->
<g id="edge2" class="edge">
<title>0&#45;&gt;5</title>
<path fill="none" stroke="#000000" d="M241.0504,-181.222C247.4633,-162.4511 256.0006,-137.4617 262.464,-118.5427"/>
<polygon fill="#000000" stroke="#000000" points="265.8027,-119.5962 265.7236,-109.0017 259.1786,-117.3332 265.8027,-119.5962"/>
<text text-anchor="middle" x="262.8736" y="-130.8" font-family="Times,serif" font-size="14.00" fill="#000000">F</text>
</g>
<!-- 4 -->
<g id="node3" class="node">
<title>4</title>
<ellipse fill="none" stroke="#000000" cx="223.8736" cy="-18" rx="27" ry="18"/>
</g>
<!-- 1&#45;&gt;4 -->
<g id="edge3" class="edge">
<title>1&#45;&gt;4</title>
<path fill="none" stroke="#000000" d="M188.012,-73.7C193.8907,-64.5692 201.2122,-53.1975 207.7043,-43.1141"/>
<polygon fill="#000000" stroke="#000000" points="210.6681,-44.9761 213.1388,-34.6733 204.7825,-41.1867 210.6681,-44.9761"/>
</g>
<!-- 5&#45;&gt;4 -->
<g id="edge4" class="edge">
<title>5&#45;&gt;4</title>
<path fill="none" stroke="#000000" d="M260.4983,-73.7C254.4945,-64.5692 247.0172,-53.1975 240.387,-43.1141"/>
<polygon fill="#000000" stroke="#000000" points="243.2555,-41.1059 234.8369,-34.6733 237.4066,-44.9518 243.2555,-41.1059"/>
</g>
<!-- 2 -->
<g id="node5" class="node">
<title>2</title>
<ellipse fill="none" stroke="#000000" cx="72.8736" cy="-208.0833" rx="61.5366" ry="48.1667"/>
<text text-anchor="middle" x="72.8736" y="-226.8833" font-family="Times,serif" font-size="14.00" fill="#000000">t = a</text>
<text text-anchor="middle" x="72.8736" y="-211.8833" font-family="Times,serif" font-size="14.00" fill="#000000">a = b</text>
<text text-anchor="middle" x="72.8736" y="-196.8833" font-family="Times,serif" font-size="14.00" fill="#000000">t~16 = t % b</text>
<text text-anchor="middle" x="72.8736" y="-181.8833" font-family="Times,serif" font-size="14.00" fill="#000000">b = t~16</text>
</g>
<!-- 3 -->
<g id="node6" class="node">
<title>3</title>
<ellipse fill="none" stroke="#000000" cx="96.8736" cy="-365.8564" rx="96.7474" ry="58.8803"/>
<text text-anchor="middle" x="96.8736" y="-392.1564" font-family="Times,serif" font-size="14.00" fill="#000000">t~18 = 0</text>
<text text-anchor="middle" x="96.8736" y="-377.1564" font-family="Times,serif" font-size="14.00" fill="#000000">t~17 = a &gt; t~18</text>
<text text-anchor="middle" x="96.8736" y="-362.1564" font-family="Times,serif" font-size="14.00" fill="#000000">t~20 = 0</text>
<text text-anchor="middle" x="96.8736" y="-347.1564" font-family="Times,serif" font-size="14.00" fill="#000000">t~19 = b &gt; t~20</text>
<text text-anchor="middle" x="96.8736" y="-332.1564" font-family="Times,serif" font-size="14.00" fill="#000000">t~21 = t~17 &amp;&amp; t~19</text>
</g>
<!-- 2&#45;&gt;3 -->
<g id="edge5" class="edge">
<title>2&#45;&gt;3</title>
<path fill="none" stroke="#000000" d="M80.1722,-256.063C82.142,-269.0124 84.3126,-283.2815 86.4186,-297.1263"/>
<polygon fill="#000000" stroke="#000000" points="82.9728,-297.7476 87.9369,-307.1075 89.8932,-296.6948 82.9728,-297.7476"/>
</g>
<!-- 3&#45;&gt;0 -->
<g id="edge6" class="edge">
<title>3&#45;&gt;0</title>
<path fill="none" stroke="#000000" d="M141.8267,-313.3202C161.9586,-289.7922 185.1137,-262.7311 202.9019,-241.9423"/>
<polygon fill="#000000" stroke="#000000" points="205.597,-244.176 209.4391,-234.3023 200.2783,-239.625 205.597,-244.176"/>
<text text-anchor="middle" x="175.8736" y="-277.9665" font-family="Times,serif" font-size="14.00" fill="#000000">F</text>
</g>
<!-- 3&#45;&gt;2 -->
<g id="edge7" class="edge">
<title>3&#45;&gt;2</title>
<path fill="none" stroke="#000000" d="M77.6842,-308.0435C76.1441,-301.7286 74.8198,-295.3496 73.8736,-289.1665 72.7483,-281.8128 72.0449,-274.04 71.6373,-266.3346"/>
<polygon fill="#000000" stroke="#000000" points="75.1328,-266.1468 71.2611,-256.2847 68.1377,-266.4087 75.1328,-266.1468"/>
<text text-anchor="middle" x="78.3736" y="-277.9665" font-family="Times,serif" font-size="14.00" fill="#000000">T</text>
</g>
</g>
</svg>
