<svg width="255px" height="452px"
     viewBox="0.00 0.00 255.49 451.61" xmlns="http://www.w3.org/2000/svg">
<g id="graph0" class="graph" transform="scale(1.0 1.0) rotate(0) translate(4 447.6123)">
<title>%3</title>
<polygon fill="#ffffff" stroke="transparent" points="-4,4 -4,-447.6123 251.4874,-447.6123 251.4874,4 -4,4"/>
<!-- 0 -->
<g id="node1" class="node">
<title>0</title>
<ellipse fill="none" stroke="#000000" cx="123.7437" cy="-416.7422" rx="63.7795" ry="26.7407"/>
<text text-anchor="middle" x="123.7437" y="-420.5422" font-family="Times,serif" font-size="14.00" fill="#000000">t~1 = 0</text>
<text text-anchor="middle" x="123.7437" y="-405.5422" font-family="Times,serif" font-size="14.00" fill="#000000">t~0 = a &gt; t~1</text>
</g>
<!-- 1 -->
<g id="node2" class="node">
<title>1</title>
<ellipse fill="none" stroke="#000000" cx="59.7437" cy="-320.8721" rx="55.4913" ry="18"/>
<text text-anchor="middle" x="59.7437" y="-317.1721" font-family="Times,serif" font-size="14.00" fill="#000000">t~14 = b * d</text>
</g>
<!-- 0&#45;&gt;1 -->
<g id="edge1" class="edge">
<title>0&#45;&gt;1</title>
<path fill="none" stroke="#000000" d="M106.4244,-390.7984C97.3749,-377.2425 86.3256,-360.691 77.2489,-347.0945"/>
<polygon fill="#000000" stroke="#000000" points="80.0732,-345.0213 71.61,-338.6475 74.2513,-348.9078 80.0732,-345.0213"/>
<text text-anchor="middle" x="97.7437" y="-360.6721" font-family="Times,serif" font-size="14.00" fill="#000000">F</text>
</g>
<!-- 3 -->
<g id="node4" class="node">
<title>3</title>
<ellipse fill="none" stroke="#000000" cx="188.7437" cy="-320.8721" rx="55.7903" ry="18"/>
<text text-anchor="middle" x="188.7437" y="-317.1721" font-family="Times,serif" font-size="14.00" fill="#000000">t~15 = a + b</text>
</g>
<!-- 0&#45;&gt;3 -->
<g id="edge2" class="edge">
<title>0&#45;&gt;3</title>
<path fill="none" stroke="#000000" d="M141.3336,-390.7984C150.5245,-377.2425 161.7465,-360.691 170.9649,-347.0945"/>
<polygon fill="#000000" stroke="#000000" points="173.9771,-348.8886 176.692,-338.6475 168.1832,-344.9603 173.9771,-348.8886"/>
<text text-anchor="middle" x="168.2437" y="-360.6721" font-family="Times,serif" font-size="14.00" fill="#000000">T</text>
</g>
<!-- 2 -->
<g id="node3" class="node">
<title>2</title>
<ellipse fill="none" stroke="#000000" cx="123.7437" cy="-132.9361" rx="123.9879" ry="132.8722"/>
<text text-anchor="middle" x="123.7437" y="-211.7361" font-family="Times,serif" font-size="14.00" fill="#000000">t~2 = a + b</text>
<text text-anchor="middle" x="123.7437" y="-196.7361" font-family="Times,serif" font-size="14.00" fill="#000000">t~3 = c * d</text>
<text text-anchor="middle" x="123.7437" y="-181.7361" font-family="Times,serif" font-size="14.00" fill="#000000">t~4 = t~2 &#45; t~3</text>
<text text-anchor="middle" x="123.7437" y="-166.7361" font-family="Times,serif" font-size="14.00" fill="#000000">t~5 = 4</text>
<text text-anchor="middle" x="123.7437" y="-151.7361" font-family="Times,serif" font-size="14.00" fill="#000000">t~6 = INT&#45;to&#45;ULONG t~5</text>
<text text-anchor="middle" x="123.7437" y="-136.7361" font-family="Times,serif" font-size="14.00" fill="#000000">t~7 = t~6 * veryLong</text>
<text text-anchor="middle" x="123.7437" y="-121.7361" font-family="Times,serif" font-size="14.00" fill="#000000">t~8 = 4</text>
<text text-anchor="middle" x="123.7437" y="-106.7361" font-family="Times,serif" font-size="14.00" fill="#000000">t~9 = INT&#45;to&#45;ULONG t~8</text>
<text text-anchor="middle" x="123.7437" y="-91.7361" font-family="Times,serif" font-size="14.00" fill="#000000">t~10 = t~9 * veryLong</text>
<text text-anchor="middle" x="123.7437" y="-76.7361" font-family="Times,serif" font-size="14.00" fill="#000000">t~11 = 4</text>
<text text-anchor="middle" x="123.7437" y="-61.7361" font-family="Times,serif" font-size="14.00" fill="#000000">t~12 = INT&#45;to&#45;ULONG t~11</text>
<text text-anchor="middle" x="123.7437" y="-46.7361" font-family="Times,serif" font-size="14.00" fill="#000000">t~13 = t~12 * veryLong</text>
</g>
<!-- 1&#45;&gt;2 -->
<g id="edge3" class="edge">
<title>1&#45;&gt;2</title>
<path fill="none" stroke="#000000" d="M65.8803,-302.852C69.0324,-293.5959 73.1845,-281.4031 77.8211,-267.7879"/>
<polygon fill="#000000" stroke="#000000" points="81.1915,-268.7478 81.102,-258.1534 74.5652,-266.4913 81.1915,-268.7478"/>
</g>
<!-- 3&#45;&gt;2 -->
<g id="edge4" class="edge">
<title>3&#45;&gt;2</title>
<path fill="none" stroke="#000000" d="M182.5112,-302.852C179.284,-293.5212 175.0248,-281.2063 170.2698,-267.4583"/>
<polygon fill="#000000" stroke="#000000" points="173.4818,-266.0372 166.9054,-257.7305 166.8663,-268.3253 173.4818,-266.0372"/>
</g>
</g>
</svg>
