<svg width="263px" height="385px"
     viewBox="0.00 0.00 262.69 385.00" xmlns="http://www.w3.org/2000/svg">
<g id="graph0" class="graph" transform="scale(1.0 1.0) rotate(0) translate(4 381)">
<title>%3</title>
<polygon fill="#ffffff" stroke="transparent" points="-4,4 -4,-381 258.6943,-381 258.6943,4 -4,4"/>
<!-- 0 -->
<g id="node1" class="node">
<title>0</title>
<ellipse fill="none" stroke="#000000" cx="172.6943" cy="-91" rx="65.7887" ry="18"/>
<text text-anchor="middle" x="172.6943" y="-87.3" font-family="Times,serif" font-size="14.00" fill="#000000">writeln(&quot;hw!&quot;);</text>
</g>
<!-- 2 -->
<g id="node2" class="node">
<title>2</title>
<ellipse fill="none" stroke="#000000" cx="172.6943" cy="-18" rx="27" ry="18"/>
</g>
<!-- 0&#45;&gt;2 -->
<g id="edge1" class="edge">
<title>0&#45;&gt;2</title>
<path fill="none" stroke="#000000" d="M172.6943,-72.9551C172.6943,-64.8828 172.6943,-55.1764 172.6943,-46.1817"/>
<polygon fill="#000000" stroke="#000000" points="176.1944,-46.0903 172.6943,-36.0904 169.1944,-46.0904 176.1944,-46.0903"/>
</g>
<!-- 1 -->
<g id="node3" class="node">
<title>1</title>
<ellipse fill="none" stroke="#000000" cx="63.6943" cy="-164" rx="63.8893" ry="18"/>
<text text-anchor="middle" x="63.6943" y="-160.3" font-family="Times,serif" font-size="14.00" fill="#000000">gcd(b,b%a)*1;</text>
</g>
<!-- 1&#45;&gt;0 -->
<g id="edge2" class="edge">
<title>1&#45;&gt;0</title>
<path fill="none" stroke="#000000" d="M88.7012,-147.2523C103.6561,-137.2366 122.851,-124.3813 139.1153,-113.4888"/>
<polygon fill="#000000" stroke="#000000" points="141.4428,-116.1424 147.8039,-107.6697 137.5475,-110.3263 141.4428,-116.1424"/>
</g>
<!-- 3 -->
<g id="node4" class="node">
<title>3</title>
<ellipse fill="none" stroke="#000000" cx="172.6943" cy="-272" rx="27" ry="18"/>
<text text-anchor="middle" x="172.6943" y="-268.3" font-family="Times,serif" font-size="14.00" fill="#000000">b=0</text>
</g>
<!-- 3&#45;&gt;1 -->
<g id="edge4" class="edge">
<title>3&#45;&gt;1</title>
<path fill="none" stroke="#000000" d="M157.5384,-256.9831C139.6425,-239.2514 109.6279,-209.5121 88.3662,-188.4455"/>
<polygon fill="#000000" stroke="#000000" points="90.812,-185.9417 81.2449,-181.3895 85.8851,-190.9142 90.812,-185.9417"/>
<text text-anchor="middle" x="138.6943" y="-214.3" font-family="Times,serif" font-size="14.00" fill="#000000">F</text>
</g>
<!-- 5 -->
<g id="node5" class="node">
<title>5</title>
<ellipse fill="none" stroke="#000000" cx="172.6943" cy="-164" rx="27" ry="18"/>
<text text-anchor="middle" x="172.6943" y="-160.3" font-family="Times,serif" font-size="14.00" fill="#000000">a;</text>
</g>
<!-- 3&#45;&gt;5 -->
<g id="edge3" class="edge">
<title>3&#45;&gt;5</title>
<path fill="none" stroke="#000000" d="M172.6943,-253.6793C172.6943,-236.821 172.6943,-211.5651 172.6943,-192.147"/>
<polygon fill="#000000" stroke="#000000" points="176.1944,-192.0501 172.6943,-182.0502 169.1944,-192.0502 176.1944,-192.0501"/>
<text text-anchor="middle" x="177.1943" y="-214.3" font-family="Times,serif" font-size="14.00" fill="#000000">T</text>
</g>
<!-- 5&#45;&gt;0 -->
<g id="edge5" class="edge">
<title>5&#45;&gt;0</title>
<path fill="none" stroke="#000000" d="M172.6943,-145.9551C172.6943,-137.8828 172.6943,-128.1764 172.6943,-119.1817"/>
<polygon fill="#000000" stroke="#000000" points="176.1944,-119.0903 172.6943,-109.0904 169.1944,-119.0904 176.1944,-119.0903"/>
</g>
<!-- 4 -->
<g id="node6" class="node">
<title>4</title>
<ellipse fill="none" stroke="#000000" cx="199.6943" cy="-359" rx="27" ry="18"/>
<text text-anchor="middle" x="199.6943" y="-355.3" font-family="Times,serif" font-size="14.00" fill="#000000">a=0</text>
</g>
<!-- 4&#45;&gt;3 -->
<g id="edge6" class="edge">
<title>4&#45;&gt;3</title>
<path fill="none" stroke="#000000" d="M194.0999,-340.9735C190.3827,-328.9958 185.4308,-313.0396 181.2261,-299.4912"/>
<polygon fill="#000000" stroke="#000000" points="184.496,-298.2189 178.1892,-289.7057 177.8106,-300.2938 184.496,-298.2189"/>
<text text-anchor="middle" x="192.6943" y="-311.8" font-family="Times,serif" font-size="14.00" fill="#000000">F</text>
</g>
<!-- 6 -->
<g id="node7" class="node">
<title>6</title>
<ellipse fill="none" stroke="#000000" cx="227.6943" cy="-218" rx="27" ry="18"/>
<text text-anchor="middle" x="227.6943" y="-214.3" font-family="Times,serif" font-size="14.00" fill="#000000">b;</text>
</g>
<!-- 4&#45;&gt;6 -->
<g id="edge7" class="edge">
<title>4&#45;&gt;6</title>
<path fill="none" stroke="#000000" d="M203.2406,-341.1423C207.9903,-317.2241 216.4696,-274.5245 222.0887,-246.2285"/>
<polygon fill="#000000" stroke="#000000" points="225.5736,-246.6483 224.0885,-236.1581 218.7077,-245.2848 225.5736,-246.6483"/>
<text text-anchor="middle" x="214.1943" y="-311.8" font-family="Times,serif" font-size="14.00" fill="#000000">T</text>
</g>
<!-- 6&#45;&gt;0 -->
<g id="edge8" class="edge">
<title>6&#45;&gt;0</title>
<path fill="none" stroke="#000000" d="M224.6166,-200.0029C221.6788,-185.1016 216.5275,-163.598 208.6943,-146 204.3088,-136.1474 198.2555,-126.0743 192.3633,-117.2859"/>
<polygon fill="#000000" stroke="#000000" points="195.1733,-115.1962 186.5925,-108.9816 189.4249,-119.1908 195.1733,-115.1962"/>
</g>
</g>
</svg>
