<svg width="373px" height="291px"
     viewBox="0.00 0.00 373.21 291.00" xmlns="http://www.w3.org/2000/svg">
<g id="graph0" class="graph" transform="scale(1.0 1.0) rotate(0) translate(4 287)">
<title>%3</title>
<polygon fill="#ffffff" stroke="transparent" points="-4,4 -4,-287 369.207,-287 369.207,4 -4,4"/>
<!-- 0 -->
<g id="node1" class="node">
<title>0</title>
<ellipse fill="none" stroke="#000000" cx="229.207" cy="-91" rx="63.8893" ry="18"/>
<text text-anchor="middle" x="229.207" y="-87.3" font-family="Times,serif" font-size="14.00" fill="#000000">gcd(b,b%a)*1;</text>
</g>
<!-- 1 -->
<g id="node2" class="node">
<title>1</title>
<ellipse fill="none" stroke="#000000" cx="229.207" cy="-18" rx="65.7887" ry="18"/>
<text text-anchor="middle" x="229.207" y="-14.3" font-family="Times,serif" font-size="14.00" fill="#000000">writeln(&quot;hw!&quot;);</text>
</g>
<!-- 0&#45;&gt;1 -->
<g id="edge1" class="edge">
<title>0&#45;&gt;1</title>
<path fill="none" stroke="#000000" d="M229.207,-72.9551C229.207,-64.8828 229.207,-55.1764 229.207,-46.1817"/>
<polygon fill="#000000" stroke="#000000" points="232.7071,-46.0903 229.207,-36.0904 225.7071,-46.0904 232.7071,-46.0903"/>
</g>
<!-- 2 -->
<g id="node3" class="node">
<title>2</title>
<ellipse fill="none" stroke="#000000" cx="82.207" cy="-178" rx="27" ry="18"/>
<text text-anchor="middle" x="82.207" y="-174.3" font-family="Times,serif" font-size="14.00" fill="#000000">b;</text>
</g>
<!-- 2&#45;&gt;1 -->
<g id="edge2" class="edge">
<title>2&#45;&gt;1</title>
<path fill="none" stroke="#000000" d="M62.2067,-165.782C32.208,-145.9388 -18.3324,-105.6389 7.207,-73 25.7602,-49.2894 100.2315,-34.3702 157.863,-26.1469"/>
<polygon fill="#000000" stroke="#000000" points="158.6202,-29.5755 168.046,-24.7376 157.6605,-22.6416 158.6202,-29.5755"/>
</g>
<!-- 3 -->
<g id="node4" class="node">
<title>3</title>
<ellipse fill="none" stroke="#000000" cx="82.207" cy="-91" rx="65.7887" ry="18"/>
<text text-anchor="middle" x="82.207" y="-87.3" font-family="Times,serif" font-size="14.00" fill="#000000">writeln(&quot;hw!&quot;);</text>
</g>
<!-- 2&#45;&gt;3 -->
<g id="edge3" class="edge">
<title>2&#45;&gt;3</title>
<path fill="none" stroke="#000000" d="M82.207,-159.9735C82.207,-148.1918 82.207,-132.5607 82.207,-119.1581"/>
<polygon fill="#000000" stroke="#000000" points="85.7071,-119.0033 82.207,-109.0034 78.7071,-119.0034 85.7071,-119.0033"/>
</g>
<!-- 4 -->
<g id="node5" class="node">
<title>4</title>
<ellipse fill="none" stroke="#000000" cx="338.207" cy="-91" rx="27" ry="18"/>
<text text-anchor="middle" x="338.207" y="-87.3" font-family="Times,serif" font-size="14.00" fill="#000000">a;</text>
</g>
<!-- 4&#45;&gt;1 -->
<g id="edge4" class="edge">
<title>4&#45;&gt;1</title>
<path fill="none" stroke="#000000" d="M318.9709,-78.1171C303.4592,-67.7285 281.2685,-52.8668 262.8321,-40.5196"/>
<polygon fill="#000000" stroke="#000000" points="264.6531,-37.5267 254.3967,-34.8702 260.7579,-43.3429 264.6531,-37.5267"/>
</g>
<!-- 5 -->
<g id="node6" class="node">
<title>5</title>
<ellipse fill="none" stroke="#000000" cx="155.207" cy="-265" rx="27" ry="18"/>
<text text-anchor="middle" x="155.207" y="-261.3" font-family="Times,serif" font-size="14.00" fill="#000000">a=0</text>
</g>
<!-- 5&#45;&gt;2 -->
<g id="edge5" class="edge">
<title>5&#45;&gt;2</title>
<path fill="none" stroke="#000000" d="M141.8177,-249.0429C130.7042,-235.798 114.7348,-216.7659 102.1214,-201.7336"/>
<polygon fill="#000000" stroke="#000000" points="104.6205,-199.2668 95.5115,-193.856 99.2581,-203.7663 104.6205,-199.2668"/>
<text text-anchor="middle" x="127.707" y="-217.8" font-family="Times,serif" font-size="14.00" fill="#000000">T</text>
</g>
<!-- 6 -->
<g id="node7" class="node">
<title>6</title>
<ellipse fill="none" stroke="#000000" cx="229.207" cy="-178" rx="27" ry="18"/>
<text text-anchor="middle" x="229.207" y="-174.3" font-family="Times,serif" font-size="14.00" fill="#000000">b=0</text>
</g>
<!-- 5&#45;&gt;6 -->
<g id="edge6" class="edge">
<title>5&#45;&gt;6</title>
<path fill="none" stroke="#000000" d="M168.7798,-249.0429C180.0455,-235.798 196.2337,-216.7659 209.0198,-201.7336"/>
<polygon fill="#000000" stroke="#000000" points="211.9073,-203.7409 215.7203,-193.856 206.5752,-199.2056 211.9073,-203.7409"/>
<text text-anchor="middle" x="201.207" y="-217.8" font-family="Times,serif" font-size="14.00" fill="#000000">F</text>
</g>
<!-- 6&#45;&gt;0 -->
<g id="edge8" class="edge">
<title>6&#45;&gt;0</title>
<path fill="none" stroke="#000000" d="M229.207,-159.9735C229.207,-148.1918 229.207,-132.5607 229.207,-119.1581"/>
<polygon fill="#000000" stroke="#000000" points="232.7071,-119.0033 229.207,-109.0034 225.7071,-119.0034 232.7071,-119.0033"/>
<text text-anchor="middle" x="233.207" y="-130.8" font-family="Times,serif" font-size="14.00" fill="#000000">F</text>
</g>
<!-- 6&#45;&gt;4 -->
<g id="edge7" class="edge">
<title>6&#45;&gt;4</title>
<path fill="none" stroke="#000000" d="M246.7198,-164.0219C264.5972,-149.7528 292.5283,-127.4592 312.828,-111.2566"/>
<polygon fill="#000000" stroke="#000000" points="315.1054,-113.9171 320.7378,-104.9434 310.7387,-108.4461 315.1054,-113.9171"/>
<text text-anchor="middle" x="294.707" y="-130.8" font-family="Times,serif" font-size="14.00" fill="#000000">T</text>
</g>
</g>
</svg>
