<svg width="91px" height="188px"
     viewBox="0.00 0.00 91.19 188.00" xmlns="http://www.w3.org/2000/svg">
<g id="graph0" class="graph" transform="scale(1.0 1.0) rotate(0) translate(4 184)">
<title>%3</title>
<polygon fill="#ffffff" stroke="transparent" points="-4,4 -4,-184 87.1926,-184 87.1926,4 -4,4"/>
<!-- 0 -->
<g id="node1" class="node">
<title>0</title>
<ellipse fill="none" stroke="#000000" cx="41.5963" cy="-18" rx="27" ry="18"/>
</g>
<!-- 1 -->
<g id="node2" class="node">
<title>1</title>
<ellipse fill="none" stroke="#000000" cx="41.5963" cy="-162" rx="41.6928" ry="18"/>
<text text-anchor="middle" x="41.5963" y="-158.3" font-family="Times,serif" font-size="14.00" fill="#000000">empty();</text>
</g>
<!-- 2 -->
<g id="node3" class="node">
<title>2</title>
<ellipse fill="none" stroke="#000000" cx="41.5963" cy="-90" rx="27" ry="18"/>
<text text-anchor="middle" x="41.5963" y="-86.3" font-family="Times,serif" font-size="14.00" fill="#000000">43;</text>
</g>
<!-- 1&#45;&gt;2 -->
<g id="edge1" class="edge">
<title>1&#45;&gt;2</title>
<path fill="none" stroke="#000000" d="M41.5963,-143.8314C41.5963,-136.131 41.5963,-126.9743 41.5963,-118.4166"/>
<polygon fill="#000000" stroke="#000000" points="45.0964,-118.4132 41.5963,-108.4133 38.0964,-118.4133 45.0964,-118.4132"/>
</g>
<!-- 2&#45;&gt;0 -->
<g id="edge2" class="edge">
<title>2&#45;&gt;0</title>
<path fill="none" stroke="#000000" d="M41.5963,-71.8314C41.5963,-64.131 41.5963,-54.9743 41.5963,-46.4166"/>
<polygon fill="#000000" stroke="#000000" points="45.0964,-46.4132 41.5963,-36.4133 38.0964,-46.4133 45.0964,-46.4132"/>
</g>
</g>
</svg>
