<svg width="263px" height="385px"
     viewBox="0.00 0.00 262.69 385.00" xmlns="http://www.w3.org/2000/svg">
<g id="graph0" class="graph" transform="scale(1.0 1.0) rotate(0) translate(4 381)">
<title>%3</title>
<polygon fill="#ffffff" stroke="transparent" points="-4,4 -4,-381 258.6943,-381 258.6943,4 -4,4"/>
<!-- 0 -->
<g id="node1" class="node">
<title>0</title>
<ellipse fill="none" stroke="#000000" cx="27" cy="-218" rx="27" ry="18"/>
<text text-anchor="middle" x="27" y="-214.3" font-family="Times,serif" font-size="14.00" fill="#000000">b;</text>
</g>
<!-- 4 -->
<g id="node2" class="node">
<title>4</title>
<ellipse fill="none" stroke="#000000" cx="82" cy="-91" rx="65.7887" ry="18"/>
<text text-anchor="middle" x="82" y="-87.3" font-family="Times,serif" font-size="14.00" fill="#000000">writeln(&quot;hw!&quot;);</text>
</g>
<!-- 0&#45;&gt;4 -->
<g id="edge1" class="edge">
<title>0&#45;&gt;4</title>
<path fill="none" stroke="#000000" d="M30.0778,-200.0029C33.0155,-185.1016 38.1668,-163.598 46,-146 50.3855,-136.1474 56.4389,-126.0743 62.3311,-117.2859"/>
<polygon fill="#000000" stroke="#000000" points="65.2694,-119.1908 68.1018,-108.9816 59.5211,-115.1962 65.2694,-119.1908"/>
</g>
<!-- 3 -->
<g id="node3" class="node">
<title>3</title>
<ellipse fill="none" stroke="#000000" cx="82" cy="-18" rx="27" ry="18"/>
</g>
<!-- 4&#45;&gt;3 -->
<g id="edge2" class="edge">
<title>4&#45;&gt;3</title>
<path fill="none" stroke="#000000" d="M82,-72.9551C82,-64.8828 82,-55.1764 82,-46.1817"/>
<polygon fill="#000000" stroke="#000000" points="85.5001,-46.0903 82,-36.0904 78.5001,-46.0904 85.5001,-46.0903"/>
</g>
<!-- 1 -->
<g id="node4" class="node">
<title>1</title>
<ellipse fill="none" stroke="#000000" cx="82" cy="-272" rx="27" ry="18"/>
<text text-anchor="middle" x="82" y="-268.3" font-family="Times,serif" font-size="14.00" fill="#000000">b=0</text>
</g>
<!-- 5 -->
<g id="node5" class="node">
<title>5</title>
<ellipse fill="none" stroke="#000000" cx="82" cy="-164" rx="27" ry="18"/>
<text text-anchor="middle" x="82" y="-160.3" font-family="Times,serif" font-size="14.00" fill="#000000">a;</text>
</g>
<!-- 1&#45;&gt;5 -->
<g id="edge3" class="edge">
<title>1&#45;&gt;5</title>
<path fill="none" stroke="#000000" d="M82,-253.6793C82,-236.821 82,-211.5651 82,-192.147"/>
<polygon fill="#000000" stroke="#000000" points="85.5001,-192.0501 82,-182.0502 78.5001,-192.0502 85.5001,-192.0501"/>
<text text-anchor="middle" x="86.5" y="-214.3" font-family="Times,serif" font-size="14.00" fill="#000000">T</text>
</g>
<!-- 2 -->
<g id="node6" class="node">
<title>2</title>
<ellipse fill="none" stroke="#000000" cx="191" cy="-164" rx="63.8893" ry="18"/>
<text text-anchor="middle" x="191" y="-160.3" font-family="Times,serif" font-size="14.00" fill="#000000">gcd(b,b%a)*1;</text>
</g>
<!-- 1&#45;&gt;2 -->
<g id="edge4" class="edge">
<title>1&#45;&gt;2</title>
<path fill="none" stroke="#000000" d="M97.156,-256.9831C115.0518,-239.2514 145.0665,-209.5121 166.3282,-188.4455"/>
<polygon fill="#000000" stroke="#000000" points="168.8093,-190.9142 173.4494,-181.3895 163.8824,-185.9417 168.8093,-190.9142"/>
<text text-anchor="middle" x="156" y="-214.3" font-family="Times,serif" font-size="14.00" fill="#000000">F</text>
</g>
<!-- 5&#45;&gt;4 -->
<g id="edge5" class="edge">
<title>5&#45;&gt;4</title>
<path fill="none" stroke="#000000" d="M82,-145.9551C82,-137.8828 82,-128.1764 82,-119.1817"/>
<polygon fill="#000000" stroke="#000000" points="85.5001,-119.0903 82,-109.0904 78.5001,-119.0904 85.5001,-119.0903"/>
</g>
<!-- 2&#45;&gt;4 -->
<g id="edge6" class="edge">
<title>2&#45;&gt;4</title>
<path fill="none" stroke="#000000" d="M165.9932,-147.2523C151.0382,-137.2366 131.8433,-124.3813 115.5791,-113.4888"/>
<polygon fill="#000000" stroke="#000000" points="117.1468,-110.3263 106.8904,-107.6697 113.2516,-116.1424 117.1468,-110.3263"/>
</g>
<!-- 6 -->
<g id="node7" class="node">
<title>6</title>
<ellipse fill="none" stroke="#000000" cx="43" cy="-359" rx="27" ry="18"/>
<text text-anchor="middle" x="43" y="-355.3" font-family="Times,serif" font-size="14.00" fill="#000000">a=0</text>
</g>
<!-- 6&#45;&gt;0 -->
<g id="edge8" class="edge">
<title>6&#45;&gt;0</title>
<path fill="none" stroke="#000000" d="M40.941,-340.8554C38.2169,-316.8485 33.3871,-274.2861 30.189,-246.1035"/>
<polygon fill="#000000" stroke="#000000" points="33.6563,-245.6166 29.0511,-236.075 26.701,-246.4059 33.6563,-245.6166"/>
<text text-anchor="middle" x="43.5" y="-311.8" font-family="Times,serif" font-size="14.00" fill="#000000">T</text>
</g>
<!-- 6&#45;&gt;1 -->
<g id="edge7" class="edge">
<title>6&#45;&gt;1</title>
<path fill="none" stroke="#000000" d="M50.8922,-341.3943C56.3728,-329.1683 63.7768,-312.6517 69.9866,-298.7992"/>
<polygon fill="#000000" stroke="#000000" points="73.3558,-299.8395 74.2526,-289.2827 66.9682,-296.976 73.3558,-299.8395"/>
<text text-anchor="middle" x="68" y="-311.8" font-family="Times,serif" font-size="14.00" fill="#000000">F</text>
</g>
</g>
</svg>
