<svg width="304px" height="575px"
     viewBox="0.00 0.00 303.66 574.65" xmlns="http://www.w3.org/2000/svg">
<g id="graph0" class="graph" transform="scale(1.0 1.0) rotate(0) translate(4 570.6468)">
<title>%3</title>
<polygon fill="#ffffff" stroke="transparent" points="-4,4 -4,-570.6468 299.6604,-570.6468 299.6604,4 -4,4"/>
<!-- 0 -->
<g id="node1" class="node">
<title>0</title>
<ellipse fill="none" stroke="#000000" cx="60.6604" cy="-209.7401" rx="27" ry="18"/>
</g>
<!-- 1 -->
<g id="node2" class="node">
<title>1</title>
<ellipse fill="none" stroke="#000000" cx="148.6604" cy="-442.1701" rx="43.6818" ry="37.4533"/>
<text text-anchor="middle" x="148.6604" y="-453.4701" font-family="Times,serif" font-size="14.00" fill="#000000">t:=a;</text>
<text text-anchor="middle" x="148.6604" y="-438.4701" font-family="Times,serif" font-size="14.00" fill="#000000">a:=b;</text>
<text text-anchor="middle" x="148.6604" y="-423.4701" font-family="Times,serif" font-size="14.00" fill="#000000">b:=t%b;</text>
</g>
<!-- 6 -->
<g id="node3" class="node">
<title>6</title>
<ellipse fill="none" stroke="#000000" cx="172.6604" cy="-548.6468" rx="64.9885" ry="18"/>
<text text-anchor="middle" x="172.6604" y="-544.9468" font-family="Times,serif" font-size="14.00" fill="#000000">(a&gt;0)&amp;&amp;(b&gt;0)</text>
</g>
<!-- 1&#45;&gt;6 -->
<g id="edge1" class="edge">
<title>1&#45;&gt;6</title>
<path fill="none" stroke="#000000" d="M157.0387,-479.3404C160.0962,-492.9051 163.4998,-508.0054 166.3476,-520.6396"/>
<polygon fill="#000000" stroke="#000000" points="162.9759,-521.5988 168.5892,-530.5844 169.8046,-520.0596 162.9759,-521.5988"/>
</g>
<!-- 6&#45;&gt;1 -->
<g id="edge3" class="edge">
<title>6&#45;&gt;1</title>
<path fill="none" stroke="#000000" d="M158.6084,-530.9317C154.9898,-525.388 151.5778,-519.0404 149.6604,-512.6468 147.4852,-505.3934 146.3032,-497.5286 145.7613,-489.7718"/>
<polygon fill="#000000" stroke="#000000" points="149.256,-489.5608 145.388,-479.6973 142.2608,-489.8201 149.256,-489.5608"/>
<text text-anchor="middle" x="154.1604" y="-501.4468" font-family="Times,serif" font-size="14.00" fill="#000000">T</text>
</g>
<!-- 9 -->
<g id="node4" class="node">
<title>9</title>
<ellipse fill="none" stroke="#000000" cx="237.6604" cy="-442.1701" rx="27" ry="18"/>
<text text-anchor="middle" x="237.6604" y="-438.4701" font-family="Times,serif" font-size="14.00" fill="#000000">a=0</text>
</g>
<!-- 6&#45;&gt;9 -->
<g id="edge2" class="edge">
<title>6&#45;&gt;9</title>
<path fill="none" stroke="#000000" d="M183.6868,-530.5844C194.2555,-513.2719 210.3079,-486.9764 222.1611,-467.5596"/>
<polygon fill="#000000" stroke="#000000" points="225.2151,-469.274 227.4383,-458.915 219.2404,-465.6267 225.2151,-469.274"/>
<text text-anchor="middle" x="206.6604" y="-501.4468" font-family="Times,serif" font-size="14.00" fill="#000000">F</text>
</g>
<!-- 8 -->
<g id="node5" class="node">
<title>8</title>
<ellipse fill="none" stroke="#000000" cx="196.6604" cy="-316.2168" rx="27" ry="18"/>
<text text-anchor="middle" x="196.6604" y="-312.5168" font-family="Times,serif" font-size="14.00" fill="#000000">b;</text>
</g>
<!-- 9&#45;&gt;8 -->
<g id="edge4" class="edge">
<title>9&#45;&gt;8</title>
<path fill="none" stroke="#000000" d="M231.8731,-424.3912C225.0358,-403.3868 213.5835,-368.2049 205.6026,-343.6874"/>
<polygon fill="#000000" stroke="#000000" points="208.8418,-342.3307 202.4183,-333.9052 202.1856,-344.4975 208.8418,-342.3307"/>
<text text-anchor="middle" x="222.1604" y="-375.4934" font-family="Times,serif" font-size="14.00" fill="#000000">T</text>
</g>
<!-- 7 -->
<g id="node10" class="node">
<title>7</title>
<ellipse fill="none" stroke="#000000" cx="268.6604" cy="-316.2168" rx="27" ry="18"/>
<text text-anchor="middle" x="268.6604" y="-312.5168" font-family="Times,serif" font-size="14.00" fill="#000000">a;</text>
</g>
<!-- 9&#45;&gt;7 -->
<g id="edge5" class="edge">
<title>9&#45;&gt;7</title>
<path fill="none" stroke="#000000" d="M242.0362,-424.3912C247.1767,-403.5055 255.7672,-368.602 261.7967,-344.104"/>
<polygon fill="#000000" stroke="#000000" points="265.2151,-344.8598 264.2065,-334.3131 258.418,-343.1868 265.2151,-344.8598"/>
<text text-anchor="middle" x="257.6604" y="-375.4934" font-family="Times,serif" font-size="14.00" fill="#000000">F</text>
</g>
<!-- 2 -->
<g id="node6" class="node">
<title>2</title>
<ellipse fill="none" stroke="#000000" cx="154.6604" cy="-209.7401" rx="29.795" ry="18"/>
<text text-anchor="middle" x="154.6604" y="-206.0401" font-family="Times,serif" font-size="14.00" fill="#000000">!tired</text>
</g>
<!-- 8&#45;&gt;2 -->
<g id="edge6" class="edge">
<title>8&#45;&gt;2</title>
<path fill="none" stroke="#000000" d="M189.725,-298.6343C183.0982,-281.8343 173.0132,-256.2674 165.3572,-236.8581"/>
<polygon fill="#000000" stroke="#000000" points="168.5315,-235.3668 161.6062,-227.3487 162.0198,-237.9355 168.5315,-235.3668"/>
</g>
<!-- 4 -->
<g id="node7" class="node">
<title>4</title>
<ellipse fill="none" stroke="#000000" cx="154.6604" cy="-113.8701" rx="71.3357" ry="26.7407"/>
<text text-anchor="middle" x="154.6604" y="-117.6701" font-family="Times,serif" font-size="14.00" fill="#000000">writeln(&quot;hw!&quot;);</text>
<text text-anchor="middle" x="154.6604" y="-102.6701" font-family="Times,serif" font-size="14.00" fill="#000000">tired</text>
</g>
<!-- 2&#45;&gt;4 -->
<g id="edge7" class="edge">
<title>2&#45;&gt;4</title>
<path fill="none" stroke="#000000" d="M154.6604,-191.7077C154.6604,-180.2968 154.6604,-165.1218 154.6604,-151.2025"/>
<polygon fill="#000000" stroke="#000000" points="158.1605,-150.8862 154.6604,-140.8862 151.1605,-150.8863 158.1605,-150.8862"/>
<text text-anchor="middle" x="158.6604" y="-162.5401" font-family="Times,serif" font-size="14.00" fill="#000000">F</text>
</g>
<!-- 3 -->
<g id="node9" class="node">
<title>3</title>
<ellipse fill="none" stroke="#000000" cx="75.6604" cy="-316.2168" rx="75.8212" ry="37.4533"/>
<text text-anchor="middle" x="75.6604" y="-327.5168" font-family="Times,serif" font-size="14.00" fill="#000000">writeln(&quot;hw1!&quot;);</text>
<text text-anchor="middle" x="75.6604" y="-312.5168" font-family="Times,serif" font-size="14.00" fill="#000000">writeln(&quot;hw2!&quot;);</text>
<text text-anchor="middle" x="75.6604" y="-297.5168" font-family="Times,serif" font-size="14.00" fill="#000000">tooMuch</text>
</g>
<!-- 2&#45;&gt;3 -->
<g id="edge8" class="edge">
<title>2&#45;&gt;3</title>
<path fill="none" stroke="#000000" d="M148.911,-227.6161C145.1612,-237.8248 139.6612,-250.5748 132.6604,-260.7401 129.0624,-265.9645 124.9202,-271.1003 120.5451,-276.0111"/>
<polygon fill="#000000" stroke="#000000" points="117.795,-273.8278 113.5229,-283.5231 122.9086,-278.608 117.795,-273.8278"/>
<text text-anchor="middle" x="145.1604" y="-249.5401" font-family="Times,serif" font-size="14.00" fill="#000000">T</text>
</g>
<!-- 4&#45;&gt;4 -->
<g id="edge10" class="edge">
<title>4&#45;&gt;4</title>
<path fill="none" stroke="#000000" d="M221.7328,-123.1862C234.7993,-122.1044 244.0782,-118.999 244.0782,-113.8701 244.0782,-110.1837 239.2847,-107.5426 231.7367,-105.9469"/>
<polygon fill="#000000" stroke="#000000" points="232.12,-102.4666 221.7328,-104.5539 231.1545,-109.3997 232.12,-102.4666"/>
<text text-anchor="middle" x="248.5782" y="-110.1701" font-family="Times,serif" font-size="14.00" fill="#000000">T</text>
</g>
<!-- 5 -->
<g id="node8" class="node">
<title>5</title>
<ellipse fill="none" stroke="#000000" cx="154.6604" cy="-18" rx="27" ry="18"/>
</g>
<!-- 4&#45;&gt;5 -->
<g id="edge9" class="edge">
<title>4&#45;&gt;5</title>
<path fill="none" stroke="#000000" d="M154.6604,-86.9098C154.6604,-74.2756 154.6604,-59.2199 154.6604,-46.4086"/>
<polygon fill="#000000" stroke="#000000" points="158.1605,-46.2775 154.6604,-36.2775 151.1605,-46.2776 158.1605,-46.2775"/>
<text text-anchor="middle" x="158.6604" y="-57.8" font-family="Times,serif" font-size="14.00" fill="#000000">F</text>
</g>
<!-- 3&#45;&gt;0 -->
<g id="edge11" class="edge">
<title>3&#45;&gt;0</title>
<path fill="none" stroke="#000000" d="M65.8696,-278.797C64.595,-272.7937 63.4574,-266.6217 62.6604,-260.7401 61.6576,-253.3396 61.0983,-245.2842 60.7992,-237.8071"/>
<polygon fill="#000000" stroke="#000000" points="64.2964,-237.6535 60.5305,-227.7506 57.2989,-237.8406 64.2964,-237.6535"/>
<text text-anchor="middle" x="66.6604" y="-249.5401" font-family="Times,serif" font-size="14.00" fill="#000000">F</text>
</g>
<!-- 3&#45;&gt;2 -->
<g id="edge12" class="edge">
<title>3&#45;&gt;2</title>
<path fill="none" stroke="#000000" d="M79.6016,-278.674C82.2151,-267.2581 86.5348,-255.2341 93.6604,-245.7401 100.4988,-236.6289 110.3762,-229.3975 120.1975,-223.8787"/>
<polygon fill="#000000" stroke="#000000" points="121.825,-226.9775 129.1125,-219.287 118.6198,-220.7544 121.825,-226.9775"/>
<text text-anchor="middle" x="97.6604" y="-249.5401" font-family="Times,serif" font-size="14.00" fill="#000000">F</text>
</g>
<!-- 3&#45;&gt;2 -->
<g id="edge13" class="edge">
<title>3&#45;&gt;2</title>
<path fill="none" stroke="#000000" d="M98.8222,-280.5322C106.4685,-269.2156 115.1901,-256.7808 123.6604,-245.7401 126.7009,-241.7769 130.0378,-237.6741 133.3606,-233.7196"/>
<polygon fill="#000000" stroke="#000000" points="136.2106,-235.7727 140.0621,-225.9027 130.8962,-231.2166 136.2106,-235.7727"/>
<text text-anchor="middle" x="128.1604" y="-249.5401" font-family="Times,serif" font-size="14.00" fill="#000000">T</text>
</g>
<!-- 7&#45;&gt;2 -->
<g id="edge14" class="edge">
<title>7&#45;&gt;2</title>
<path fill="none" stroke="#000000" d="M254.223,-300.6248C247.7525,-293.7848 239.9506,-285.737 232.6604,-278.7401 215.4433,-262.2157 195.245,-244.3883 179.7166,-230.9943"/>
<polygon fill="#000000" stroke="#000000" points="181.9302,-228.2819 172.0624,-224.4247 177.371,-233.5936 181.9302,-228.2819"/>
</g>
</g>
</svg>
