<svg width="376px" height="518px"
     viewBox="0.00 0.00 376.48 517.95" xmlns="http://www.w3.org/2000/svg">
<g id="graph0" class="graph" transform="scale(1.0 1.0) rotate(0) translate(4 513.9533)">
<title>%3</title>
<polygon fill="#ffffff" stroke="transparent" points="-4,4 -4,-513.9533 372.4848,-513.9533 372.4848,4 -4,4"/>
<!-- 0 -->
<g id="node1" class="node">
<title>0</title>
<ellipse fill="none" stroke="#000000" cx="103.6442" cy="-385.4767" rx="75.8212" ry="26.7407"/>
<text text-anchor="middle" x="103.6442" y="-389.2767" font-family="Times,serif" font-size="14.00" fill="#000000">writeln(&quot;hw1!&quot;);</text>
<text text-anchor="middle" x="103.6442" y="-374.2767" font-family="Times,serif" font-size="14.00" fill="#000000">writeln(&quot;hw2!&quot;);</text>
</g>
<!-- 3 -->
<g id="node2" class="node">
<title>3</title>
<ellipse fill="none" stroke="#000000" cx="61.6442" cy="-279" rx="42.7926" ry="18"/>
<text text-anchor="middle" x="61.6442" y="-275.3" font-family="Times,serif" font-size="14.00" fill="#000000">tooMuch</text>
</g>
<!-- 0&#45;&gt;3 -->
<g id="edge1" class="edge">
<title>0&#45;&gt;3</title>
<path fill="none" stroke="#000000" d="M93.0458,-358.6081C86.7268,-342.5883 78.7267,-322.3068 72.383,-306.2245"/>
<polygon fill="#000000" stroke="#000000" points="75.6023,-304.8475 68.677,-296.8293 69.0906,-307.4161 75.6023,-304.8475"/>
</g>
<!-- 5 -->
<g id="node3" class="node">
<title>5</title>
<ellipse fill="none" stroke="#000000" cx="140.6442" cy="-192" rx="29.795" ry="18"/>
<text text-anchor="middle" x="140.6442" y="-188.3" font-family="Times,serif" font-size="14.00" fill="#000000">!tired</text>
</g>
<!-- 3&#45;&gt;5 -->
<g id="edge2" class="edge">
<title>3&#45;&gt;5</title>
<path fill="none" stroke="#000000" d="M77.252,-261.8116C89.2413,-248.6082 105.9346,-230.2245 119.1813,-215.6363"/>
<polygon fill="#000000" stroke="#000000" points="122.0029,-217.7355 126.1342,-207.9793 116.8206,-213.0297 122.0029,-217.7355"/>
<text text-anchor="middle" x="110.6442" y="-231.8" font-family="Times,serif" font-size="14.00" fill="#000000">F</text>
</g>
<!-- 2 -->
<g id="node4" class="node">
<title>2</title>
<ellipse fill="none" stroke="#000000" cx="88.6442" cy="-105" rx="27" ry="18"/>
<text text-anchor="middle" x="88.6442" y="-101.3" font-family="Times,serif" font-size="14.00" fill="#000000">tired</text>
</g>
<!-- 3&#45;&gt;2 -->
<g id="edge3" class="edge">
<title>3&#45;&gt;2</title>
<path fill="none" stroke="#000000" d="M64.432,-261.0343C69.1207,-230.8176 78.6212,-169.5928 84.2263,-133.4709"/>
<polygon fill="#000000" stroke="#000000" points="87.7563,-133.5471 85.8311,-123.1286 80.839,-132.4737 87.7563,-133.5471"/>
<text text-anchor="middle" x="83.1442" y="-188.3" font-family="Times,serif" font-size="14.00" fill="#000000">T</text>
</g>
<!-- 5&#45;&gt;0 -->
<g id="edge4" class="edge">
<title>5&#45;&gt;0</title>
<path fill="none" stroke="#000000" d="M137.1986,-210.0172C131.1773,-241.503 118.6275,-307.1274 110.6984,-348.5894"/>
<polygon fill="#000000" stroke="#000000" points="107.2296,-348.0951 108.7889,-358.5746 114.105,-349.41 107.2296,-348.0951"/>
<text text-anchor="middle" x="132.1442" y="-275.3" font-family="Times,serif" font-size="14.00" fill="#000000">T</text>
</g>
<!-- 5&#45;&gt;2 -->
<g id="edge5" class="edge">
<title>5&#45;&gt;2</title>
<path fill="none" stroke="#000000" d="M130.3706,-174.8116C122.8439,-162.2187 112.5005,-144.9135 103.9952,-130.6834"/>
<polygon fill="#000000" stroke="#000000" points="106.8542,-128.6446 98.7194,-121.8567 100.8456,-132.236 106.8542,-128.6446"/>
<text text-anchor="middle" x="122.6442" y="-144.8" font-family="Times,serif" font-size="14.00" fill="#000000">F</text>
</g>
<!-- 7 -->
<g id="node5" class="node">
<title>7</title>
<ellipse fill="none" stroke="#000000" cx="65.6442" cy="-18" rx="65.7887" ry="18"/>
<text text-anchor="middle" x="65.6442" y="-14.3" font-family="Times,serif" font-size="14.00" fill="#000000">writeln(&quot;hw!&quot;);</text>
</g>
<!-- 2&#45;&gt;7 -->
<g id="edge6" class="edge">
<title>2&#45;&gt;7</title>
<path fill="none" stroke="#000000" d="M76.788,-88.5672C73.1711,-82.6788 69.6286,-75.8076 67.6442,-69 65.5542,-61.8303 64.6236,-53.8536 64.3155,-46.3785"/>
<polygon fill="#000000" stroke="#000000" points="67.8148,-46.2543 64.2385,-36.2813 60.815,-46.3077 67.8148,-46.2543"/>
<text text-anchor="middle" x="71.6442" y="-57.8" font-family="Times,serif" font-size="14.00" fill="#000000">F</text>
</g>
<!-- 1 -->
<g id="node6" class="node">
<title>1</title>
<ellipse fill="none" stroke="#000000" cx="176.6442" cy="-18" rx="27" ry="18"/>
</g>
<!-- 2&#45;&gt;1 -->
<g id="edge7" class="edge">
<title>2&#45;&gt;1</title>
<path fill="none" stroke="#000000" d="M103.9726,-89.8458C117.8531,-76.123 138.4762,-55.7342 154.2108,-40.1784"/>
<polygon fill="#000000" stroke="#000000" points="156.8407,-42.5001 161.4914,-32.9806 151.9193,-37.5222 156.8407,-42.5001"/>
<text text-anchor="middle" x="143.1442" y="-57.8" font-family="Times,serif" font-size="14.00" fill="#000000">T</text>
</g>
<!-- 7&#45;&gt;2 -->
<g id="edge8" class="edge">
<title>7&#45;&gt;2</title>
<path fill="none" stroke="#000000" d="M70.4037,-36.0034C73.5479,-47.8967 77.7311,-63.72 81.2982,-77.2132"/>
<polygon fill="#000000" stroke="#000000" points="77.9389,-78.2003 83.8786,-86.9735 84.7064,-76.4111 77.9389,-78.2003"/>
</g>
<!-- 4 -->
<g id="node7" class="node">
<title>4</title>
<ellipse fill="none" stroke="#000000" cx="194.6442" cy="-279" rx="27" ry="18"/>
<text text-anchor="middle" x="194.6442" y="-275.3" font-family="Times,serif" font-size="14.00" fill="#000000">a;</text>
</g>
<!-- 4&#45;&gt;5 -->
<g id="edge9" class="edge">
<title>4&#45;&gt;5</title>
<path fill="none" stroke="#000000" d="M184.2324,-262.2255C176.4387,-249.669 165.6343,-232.2619 156.7325,-217.9201"/>
<polygon fill="#000000" stroke="#000000" points="159.4556,-215.6705 151.2082,-209.0198 153.5081,-219.362 159.4556,-215.6705"/>
</g>
<!-- 6 -->
<g id="node8" class="node">
<title>6</title>
<ellipse fill="none" stroke="#000000" cx="300.6442" cy="-491.9533" rx="64.9885" ry="18"/>
<text text-anchor="middle" x="300.6442" y="-488.2533" font-family="Times,serif" font-size="14.00" fill="#000000">(a&gt;0)&amp;&amp;(b&gt;0)</text>
</g>
<!-- 10 -->
<g id="node9" class="node">
<title>10</title>
<ellipse fill="none" stroke="#000000" cx="235.6442" cy="-385.4767" rx="27" ry="18"/>
<text text-anchor="middle" x="235.6442" y="-381.7767" font-family="Times,serif" font-size="14.00" fill="#000000">a=0</text>
</g>
<!-- 6&#45;&gt;10 -->
<g id="edge10" class="edge">
<title>6&#45;&gt;10</title>
<path fill="none" stroke="#000000" d="M289.6178,-473.891C279.0491,-456.5784 262.9967,-430.2829 251.1435,-410.8662"/>
<polygon fill="#000000" stroke="#000000" points="254.0642,-408.9332 245.8663,-402.2216 248.0895,-412.5806 254.0642,-408.9332"/>
<text text-anchor="middle" x="282.6442" y="-444.7533" font-family="Times,serif" font-size="14.00" fill="#000000">F</text>
</g>
<!-- 8 -->
<g id="node11" class="node">
<title>8</title>
<ellipse fill="none" stroke="#000000" cx="324.6442" cy="-385.4767" rx="43.6818" ry="37.4533"/>
<text text-anchor="middle" x="324.6442" y="-396.7767" font-family="Times,serif" font-size="14.00" fill="#000000">t:=a;</text>
<text text-anchor="middle" x="324.6442" y="-381.7767" font-family="Times,serif" font-size="14.00" fill="#000000">a:=b;</text>
<text text-anchor="middle" x="324.6442" y="-366.7767" font-family="Times,serif" font-size="14.00" fill="#000000">b:=t%b;</text>
</g>
<!-- 6&#45;&gt;8 -->
<g id="edge11" class="edge">
<title>6&#45;&gt;8</title>
<path fill="none" stroke="#000000" d="M299.3734,-473.8314C299.0897,-464.0032 299.3946,-451.7017 301.6442,-440.9533 302.4044,-437.3209 303.3979,-433.6261 304.545,-429.9566"/>
<polygon fill="#000000" stroke="#000000" points="307.9028,-430.9568 307.8858,-420.362 301.292,-428.6549 307.9028,-430.9568"/>
<text text-anchor="middle" x="306.1442" y="-444.7533" font-family="Times,serif" font-size="14.00" fill="#000000">T</text>
</g>
<!-- 10&#45;&gt;4 -->
<g id="edge13" class="edge">
<title>10&#45;&gt;4</title>
<path fill="none" stroke="#000000" d="M228.8739,-367.8942C222.4048,-351.0942 212.56,-325.5273 205.0863,-306.118"/>
<polygon fill="#000000" stroke="#000000" points="208.2842,-304.6829 201.4245,-296.6086 201.7518,-307.1984 208.2842,-304.6829"/>
<text text-anchor="middle" x="218.6442" y="-318.8" font-family="Times,serif" font-size="14.00" fill="#000000">F</text>
</g>
<!-- 9 -->
<g id="node10" class="node">
<title>9</title>
<ellipse fill="none" stroke="#000000" cx="266.6442" cy="-279" rx="27" ry="18"/>
<text text-anchor="middle" x="266.6442" y="-275.3" font-family="Times,serif" font-size="14.00" fill="#000000">b;</text>
</g>
<!-- 10&#45;&gt;9 -->
<g id="edge12" class="edge">
<title>10&#45;&gt;9</title>
<path fill="none" stroke="#000000" d="M240.9029,-367.4143C245.7643,-350.7169 253.0584,-325.6635 258.6422,-306.4845"/>
<polygon fill="#000000" stroke="#000000" points="262.0281,-307.3753 261.4631,-296.7956 255.3072,-305.4185 262.0281,-307.3753"/>
<text text-anchor="middle" x="261.1442" y="-318.8" font-family="Times,serif" font-size="14.00" fill="#000000">T</text>
</g>
<!-- 9&#45;&gt;5 -->
<g id="edge14" class="edge">
<title>9&#45;&gt;5</title>
<path fill="none" stroke="#000000" d="M247.7807,-265.9752C226.8698,-251.5367 192.9216,-228.0963 168.8488,-211.4747"/>
<polygon fill="#000000" stroke="#000000" points="170.6869,-208.4905 160.4692,-205.6887 166.7095,-214.2508 170.6869,-208.4905"/>
</g>
<!-- 8&#45;&gt;6 -->
<g id="edge15" class="edge">
<title>8&#45;&gt;6</title>
<path fill="none" stroke="#000000" d="M317.8239,-422.5324C315.6882,-433.3432 313.2133,-445.1523 310.6442,-455.9533 310.0184,-458.584 309.3313,-461.3126 308.6194,-464.0374"/>
<polygon fill="#000000" stroke="#000000" points="305.2363,-463.1404 305.9977,-473.7078 311.9924,-464.972 305.2363,-463.1404"/>
</g>
</g>
</svg>
