<svg width="311px" height="696px"
     viewBox="0.00 0.00 311.00 695.69" xmlns="http://www.w3.org/2000/svg">
<g id="graph0" class="graph" transform="scale(1.0 1.0) rotate(0) translate(4 691.6934)">
<title>%3</title>
<polygon fill="#ffffff" stroke="transparent" points="-4,4 -4,-691.6934 307,-691.6934 307,4 -4,4"/>
<!-- 0 -->
<g id="node1" class="node">
<title>0</title>
<ellipse fill="none" stroke="#000000" cx="115" cy="-105" rx="27" ry="18"/>
<text text-anchor="middle" x="115" y="-101.3" font-family="Times,serif" font-size="14.00" fill="#000000">tired</text>
</g>
<!-- 8 -->
<g id="node2" class="node">
<title>8</title>
<ellipse fill="none" stroke="#000000" cx="27" cy="-18" rx="27" ry="18"/>
</g>
<!-- 0&#45;&gt;8 -->
<g id="edge1" class="edge">
<title>0&#45;&gt;8</title>
<path fill="none" stroke="#000000" d="M99.6716,-89.8458C85.7911,-76.123 65.168,-55.7342 49.4334,-40.1784"/>
<polygon fill="#000000" stroke="#000000" points="51.7249,-37.5222 42.1528,-32.9806 46.8035,-42.5001 51.7249,-37.5222"/>
<text text-anchor="middle" x="81.5" y="-57.8" font-family="Times,serif" font-size="14.00" fill="#000000">T</text>
</g>
<!-- 4 -->
<g id="node3" class="node">
<title>4</title>
<ellipse fill="none" stroke="#000000" cx="138" cy="-18" rx="65.7887" ry="18"/>
<text text-anchor="middle" x="138" y="-14.3" font-family="Times,serif" font-size="14.00" fill="#000000">writeln(&quot;hw!&quot;);</text>
</g>
<!-- 0&#45;&gt;4 -->
<g id="edge2" class="edge">
<title>0&#45;&gt;4</title>
<path fill="none" stroke="#000000" d="M113.5943,-86.7187C113.3598,-76.8438 113.9251,-64.5486 117,-54 117.8827,-50.9717 119.0738,-47.9309 120.4425,-44.9696"/>
<polygon fill="#000000" stroke="#000000" points="123.6629,-46.3676 125.2604,-35.8939 117.4801,-43.0854 123.6629,-46.3676"/>
<text text-anchor="middle" x="121" y="-57.8" font-family="Times,serif" font-size="14.00" fill="#000000">F</text>
</g>
<!-- 4&#45;&gt;0 -->
<g id="edge3" class="edge">
<title>4&#45;&gt;0</title>
<path fill="none" stroke="#000000" d="M133.2405,-36.0034C130.0963,-47.8967 125.9131,-63.72 122.3459,-77.2132"/>
<polygon fill="#000000" stroke="#000000" points="118.9378,-76.4111 119.7656,-86.9735 125.7053,-78.2003 118.9378,-76.4111"/>
</g>
<!-- 1 -->
<g id="node4" class="node">
<title>1</title>
<ellipse fill="none" stroke="#000000" cx="120" cy="-563.2168" rx="43.6818" ry="37.4533"/>
<text text-anchor="middle" x="120" y="-574.5168" font-family="Times,serif" font-size="14.00" fill="#000000">t:=a;</text>
<text text-anchor="middle" x="120" y="-559.5168" font-family="Times,serif" font-size="14.00" fill="#000000">a:=b;</text>
<text text-anchor="middle" x="120" y="-544.5168" font-family="Times,serif" font-size="14.00" fill="#000000">b:=t%b;</text>
</g>
<!-- 5 -->
<g id="node5" class="node">
<title>5</title>
<ellipse fill="none" stroke="#000000" cx="144" cy="-669.6934" rx="64.9885" ry="18"/>
<text text-anchor="middle" x="144" y="-665.9934" font-family="Times,serif" font-size="14.00" fill="#000000">(a&gt;0)&amp;&amp;(b&gt;0)</text>
</g>
<!-- 1&#45;&gt;5 -->
<g id="edge4" class="edge">
<title>1&#45;&gt;5</title>
<path fill="none" stroke="#000000" d="M128.3782,-600.3871C131.4357,-613.9518 134.8394,-629.0521 137.6871,-641.6863"/>
<polygon fill="#000000" stroke="#000000" points="134.3155,-642.6455 139.9287,-651.6311 141.1441,-641.1062 134.3155,-642.6455"/>
</g>
<!-- 5&#45;&gt;1 -->
<g id="edge6" class="edge">
<title>5&#45;&gt;1</title>
<path fill="none" stroke="#000000" d="M129.948,-651.9784C126.3293,-646.4347 122.9174,-640.0871 121,-633.6934 118.8248,-626.4401 117.6428,-618.5753 117.1009,-610.8185"/>
<polygon fill="#000000" stroke="#000000" points="120.5956,-610.6075 116.7276,-600.744 113.6004,-610.8668 120.5956,-610.6075"/>
<text text-anchor="middle" x="125.5" y="-622.4934" font-family="Times,serif" font-size="14.00" fill="#000000">T</text>
</g>
<!-- 3 -->
<g id="node6" class="node">
<title>3</title>
<ellipse fill="none" stroke="#000000" cx="209" cy="-563.2168" rx="27" ry="18"/>
<text text-anchor="middle" x="209" y="-559.5168" font-family="Times,serif" font-size="14.00" fill="#000000">a=0</text>
</g>
<!-- 5&#45;&gt;3 -->
<g id="edge5" class="edge">
<title>5&#45;&gt;3</title>
<path fill="none" stroke="#000000" d="M155.0264,-651.6311C165.595,-634.3185 181.6474,-608.0231 193.5007,-588.6063"/>
<polygon fill="#000000" stroke="#000000" points="196.5547,-590.3207 198.7778,-579.9617 190.58,-586.6733 196.5547,-590.3207"/>
<text text-anchor="middle" x="179" y="-622.4934" font-family="Times,serif" font-size="14.00" fill="#000000">F</text>
</g>
<!-- 2 -->
<g id="node7" class="node">
<title>2</title>
<ellipse fill="none" stroke="#000000" cx="168" cy="-456.7401" rx="27" ry="18"/>
<text text-anchor="middle" x="168" y="-453.0401" font-family="Times,serif" font-size="14.00" fill="#000000">b;</text>
</g>
<!-- 3&#45;&gt;2 -->
<g id="edge7" class="edge">
<title>3&#45;&gt;2</title>
<path fill="none" stroke="#000000" d="M202.2297,-545.6343C195.7607,-528.8343 185.9158,-503.2674 178.4421,-483.8581"/>
<polygon fill="#000000" stroke="#000000" points="181.6401,-482.423 174.7804,-474.3487 175.1076,-484.9385 181.6401,-482.423"/>
<text text-anchor="middle" x="191.5" y="-496.5401" font-family="Times,serif" font-size="14.00" fill="#000000">T</text>
</g>
<!-- 10 -->
<g id="node11" class="node">
<title>10</title>
<ellipse fill="none" stroke="#000000" cx="240" cy="-456.7401" rx="27" ry="18"/>
<text text-anchor="middle" x="240" y="-453.0401" font-family="Times,serif" font-size="14.00" fill="#000000">a;</text>
</g>
<!-- 3&#45;&gt;10 -->
<g id="edge8" class="edge">
<title>3&#45;&gt;10</title>
<path fill="none" stroke="#000000" d="M214.2587,-545.1545C219.1201,-528.457 226.4142,-503.4036 231.9981,-484.2246"/>
<polygon fill="#000000" stroke="#000000" points="235.384,-485.1154 234.8189,-474.5357 228.663,-483.1586 235.384,-485.1154"/>
<text text-anchor="middle" x="233" y="-496.5401" font-family="Times,serif" font-size="14.00" fill="#000000">F</text>
</g>
<!-- 9 -->
<g id="node8" class="node">
<title>9</title>
<ellipse fill="none" stroke="#000000" cx="203" cy="-383.7401" rx="29.795" ry="18"/>
<text text-anchor="middle" x="203" y="-380.0401" font-family="Times,serif" font-size="14.00" fill="#000000">!tired</text>
</g>
<!-- 2&#45;&gt;9 -->
<g id="edge9" class="edge">
<title>2&#45;&gt;9</title>
<path fill="none" stroke="#000000" d="M176.2945,-439.4401C180.4487,-430.7758 185.5703,-420.0936 190.2135,-410.4091"/>
<polygon fill="#000000" stroke="#000000" points="193.4764,-411.6992 194.6437,-401.1689 187.1644,-408.6729 193.4764,-411.6992"/>
</g>
<!-- 9&#45;&gt;0 -->
<g id="edge10" class="edge">
<title>9&#45;&gt;0</title>
<path fill="none" stroke="#000000" d="M179.7517,-372.3722C159.3055,-360.9509 130.8572,-341.2474 118,-314.7401 89.198,-255.3602 99.671,-174.9433 108.2464,-133.0314"/>
<polygon fill="#000000" stroke="#000000" points="111.7227,-133.5147 110.4156,-123.0008 104.8809,-132.035 111.7227,-133.5147"/>
<text text-anchor="middle" x="104" y="-231.8" font-family="Times,serif" font-size="14.00" fill="#000000">F</text>
</g>
<!-- 7 -->
<g id="node9" class="node">
<title>7</title>
<ellipse fill="none" stroke="#000000" cx="203" cy="-287.8701" rx="75.8212" ry="26.7407"/>
<text text-anchor="middle" x="203" y="-291.6701" font-family="Times,serif" font-size="14.00" fill="#000000">writeln(&quot;hw1!&quot;);</text>
<text text-anchor="middle" x="203" y="-276.6701" font-family="Times,serif" font-size="14.00" fill="#000000">writeln(&quot;hw2!&quot;);</text>
</g>
<!-- 9&#45;&gt;7 -->
<g id="edge11" class="edge">
<title>9&#45;&gt;7</title>
<path fill="none" stroke="#000000" d="M203,-365.7077C203,-354.2968 203,-339.1218 203,-325.2025"/>
<polygon fill="#000000" stroke="#000000" points="206.5001,-324.8862 203,-314.8862 199.5001,-324.8863 206.5001,-324.8862"/>
<text text-anchor="middle" x="207.5" y="-336.5401" font-family="Times,serif" font-size="14.00" fill="#000000">T</text>
</g>
<!-- 6 -->
<g id="node10" class="node">
<title>6</title>
<ellipse fill="none" stroke="#000000" cx="203" cy="-192" rx="42.7926" ry="18"/>
<text text-anchor="middle" x="203" y="-188.3" font-family="Times,serif" font-size="14.00" fill="#000000">tooMuch</text>
</g>
<!-- 7&#45;&gt;6 -->
<g id="edge12" class="edge">
<title>7&#45;&gt;6</title>
<path fill="none" stroke="#000000" d="M203,-260.9098C203,-248.2756 203,-233.2199 203,-220.4086"/>
<polygon fill="#000000" stroke="#000000" points="206.5001,-220.2775 203,-210.2775 199.5001,-220.2776 206.5001,-220.2775"/>
</g>
<!-- 6&#45;&gt;0 -->
<g id="edge14" class="edge">
<title>6&#45;&gt;0</title>
<path fill="none" stroke="#000000" d="M186.0327,-175.2255C172.2526,-161.602 152.6969,-142.2685 137.5919,-127.3351"/>
<polygon fill="#000000" stroke="#000000" points="139.7249,-124.5222 130.1528,-119.9806 134.8035,-129.5001 139.7249,-124.5222"/>
<text text-anchor="middle" x="169.5" y="-144.8" font-family="Times,serif" font-size="14.00" fill="#000000">T</text>
</g>
<!-- 6&#45;&gt;9 -->
<g id="edge13" class="edge">
<title>6&#45;&gt;9</title>
<path fill="none" stroke="#000000" d="M230.8151,-205.8755C250.8081,-217.5459 276.2316,-236.2891 288,-261 298.2697,-282.5639 298.2697,-293.1762 288,-314.7401 277.0645,-337.7022 254.3384,-355.5113 235.1349,-367.2809"/>
<polygon fill="#000000" stroke="#000000" points="233.21,-364.3518 226.337,-372.4148 236.738,-370.3977 233.21,-364.3518"/>
<text text-anchor="middle" x="299" y="-284.1701" font-family="Times,serif" font-size="14.00" fill="#000000">F</text>
</g>
<!-- 10&#45;&gt;9 -->
<g id="edge15" class="edge">
<title>10&#45;&gt;9</title>
<path fill="none" stroke="#000000" d="M231.2315,-439.4401C226.7943,-430.6855 221.3128,-419.8708 216.3639,-410.1068"/>
<polygon fill="#000000" stroke="#000000" points="219.4767,-408.5063 211.8338,-401.1689 213.2329,-411.671 219.4767,-408.5063"/>
</g>
</g>
</svg>
