<svg width="357px" height="536px"
     viewBox="0.00 0.00 357.30 535.69" xmlns="http://www.w3.org/2000/svg">
<g id="graph0" class="graph" transform="scale(1.0 1.0) rotate(0) translate(4 531.6934)">
<title>%3</title>
<polygon fill="#ffffff" stroke="transparent" points="-4,4 -4,-531.6934 353.3046,-531.6934 353.3046,4 -4,4"/>
<!-- 0 -->
<g id="node1" class="node">
<title>0</title>
<ellipse fill="none" stroke="#000000" cx="65.6442" cy="-209.7401" rx="65.7887" ry="18"/>
<text text-anchor="middle" x="65.6442" y="-206.0401" font-family="Times,serif" font-size="14.00" fill="#000000">writeln(&quot;hw!&quot;);</text>
</g>
<!-- 9 -->
<g id="node2" class="node">
<title>9</title>
<ellipse fill="none" stroke="#000000" cx="136.6442" cy="-113.8701" rx="27" ry="18"/>
<text text-anchor="middle" x="136.6442" y="-110.1701" font-family="Times,serif" font-size="14.00" fill="#000000">tired</text>
</g>
<!-- 0&#45;&gt;9 -->
<g id="edge1" class="edge">
<title>0&#45;&gt;9</title>
<path fill="none" stroke="#000000" d="M75.4991,-191.761C81.2466,-181.753 88.8776,-169.2343 96.6442,-158.7401 102.1772,-151.2639 108.7058,-143.5548 114.8662,-136.6811"/>
<polygon fill="#000000" stroke="#000000" points="117.6735,-138.7981 121.8471,-129.0599 112.5116,-134.0699 117.6735,-138.7981"/>
</g>
<!-- 9&#45;&gt;0 -->
<g id="edge2" class="edge">
<title>9&#45;&gt;0</title>
<path fill="none" stroke="#000000" d="M126.3028,-130.5065C118.5183,-142.7335 107.3861,-159.6086 96.6442,-173.7401 94.0051,-177.212 91.1337,-180.7855 88.2385,-184.2704"/>
<polygon fill="#000000" stroke="#000000" points="85.3487,-182.2661 81.5382,-192.152 90.6819,-186.8 85.3487,-182.2661"/>
<text text-anchor="middle" x="111.6442" y="-162.5401" font-family="Times,serif" font-size="14.00" fill="#000000">F</text>
</g>
<!-- 2 -->
<g id="node3" class="node">
<title>2</title>
<ellipse fill="none" stroke="#000000" cx="136.6442" cy="-18" rx="27" ry="18"/>
</g>
<!-- 9&#45;&gt;2 -->
<g id="edge3" class="edge">
<title>9&#45;&gt;2</title>
<path fill="none" stroke="#000000" d="M136.6442,-95.8376C136.6442,-81.9995 136.6442,-62.6256 136.6442,-46.6687"/>
<polygon fill="#000000" stroke="#000000" points="140.1443,-46.2775 136.6442,-36.2775 133.1443,-46.2776 140.1443,-46.2775"/>
<text text-anchor="middle" x="141.1442" y="-57.8" font-family="Times,serif" font-size="14.00" fill="#000000">T</text>
</g>
<!-- 1 -->
<g id="node4" class="node">
<title>1</title>
<ellipse fill="none" stroke="#000000" cx="267.6442" cy="-296.7401" rx="42.7926" ry="18"/>
<text text-anchor="middle" x="267.6442" y="-293.0401" font-family="Times,serif" font-size="14.00" fill="#000000">tooMuch</text>
</g>
<!-- 1&#45;&gt;9 -->
<g id="edge4" class="edge">
<title>1&#45;&gt;9</title>
<path fill="none" stroke="#000000" d="M264.9404,-278.5436C259.684,-245.3411 247.2239,-176.6921 231.6442,-158.7401 218.0647,-143.093 207.4179,-149.5027 188.6442,-140.7401 181.5539,-137.4307 174.0244,-133.6813 166.9615,-130.0558"/>
<polygon fill="#000000" stroke="#000000" points="168.1912,-126.7504 157.7043,-125.2418 164.9616,-132.9608 168.1912,-126.7504"/>
<text text-anchor="middle" x="259.1442" y="-206.0401" font-family="Times,serif" font-size="14.00" fill="#000000">T</text>
</g>
<!-- 3 -->
<g id="node5" class="node">
<title>3</title>
<ellipse fill="none" stroke="#000000" cx="179.6442" cy="-209.7401" rx="29.795" ry="18"/>
<text text-anchor="middle" x="179.6442" y="-206.0401" font-family="Times,serif" font-size="14.00" fill="#000000">!tired</text>
</g>
<!-- 1&#45;&gt;3 -->
<g id="edge5" class="edge">
<title>1&#45;&gt;3</title>
<path fill="none" stroke="#000000" d="M246.8617,-280.9578C239.305,-274.9073 230.8552,-267.7652 223.6442,-260.7401 215.2654,-252.5774 206.7165,-243.0069 199.4098,-234.3752"/>
<polygon fill="#000000" stroke="#000000" points="201.9159,-231.9148 192.831,-226.4636 196.5336,-236.3904 201.9159,-231.9148"/>
<text text-anchor="middle" x="227.6442" y="-249.5401" font-family="Times,serif" font-size="14.00" fill="#000000">F</text>
</g>
<!-- 3&#45;&gt;9 -->
<g id="edge6" class="edge">
<title>3&#45;&gt;9</title>
<path fill="none" stroke="#000000" d="M168.3636,-192.9391C164.6659,-187.0212 160.7208,-180.2255 157.6442,-173.7401 152.7578,-163.4399 148.39,-151.6822 144.9201,-141.3293"/>
<polygon fill="#000000" stroke="#000000" points="148.1663,-139.9918 141.7635,-131.5505 141.5047,-142.1422 148.1663,-139.9918"/>
<text text-anchor="middle" x="161.6442" y="-162.5401" font-family="Times,serif" font-size="14.00" fill="#000000">F</text>
</g>
<!-- 6 -->
<g id="node6" class="node">
<title>6</title>
<ellipse fill="none" stroke="#000000" cx="273.6442" cy="-113.8701" rx="75.8212" ry="26.7407"/>
<text text-anchor="middle" x="273.6442" y="-117.6701" font-family="Times,serif" font-size="14.00" fill="#000000">writeln(&quot;hw1!&quot;);</text>
<text text-anchor="middle" x="273.6442" y="-102.6701" font-family="Times,serif" font-size="14.00" fill="#000000">writeln(&quot;hw2!&quot;);</text>
</g>
<!-- 3&#45;&gt;6 -->
<g id="edge7" class="edge">
<title>3&#45;&gt;6</title>
<path fill="none" stroke="#000000" d="M195.1664,-193.9091C207.6243,-181.2033 225.543,-162.9282 241.1139,-147.0475"/>
<polygon fill="#000000" stroke="#000000" points="244.033,-149.0696 248.535,-139.4788 239.0347,-144.1688 244.033,-149.0696"/>
<text text-anchor="middle" x="234.1442" y="-162.5401" font-family="Times,serif" font-size="14.00" fill="#000000">T</text>
</g>
<!-- 6&#45;&gt;1 -->
<g id="edge8" class="edge">
<title>6&#45;&gt;1</title>
<path fill="none" stroke="#000000" d="M272.7599,-140.8224C271.6422,-174.8877 269.7266,-233.2727 268.5834,-268.1134"/>
<polygon fill="#000000" stroke="#000000" points="265.0713,-268.4278 268.2414,-278.5373 272.0675,-268.6575 265.0713,-268.4278"/>
</g>
<!-- 4 -->
<g id="node7" class="node">
<title>4</title>
<ellipse fill="none" stroke="#000000" cx="143.6442" cy="-403.2168" rx="27" ry="18"/>
<text text-anchor="middle" x="143.6442" y="-399.5168" font-family="Times,serif" font-size="14.00" fill="#000000">a=0</text>
</g>
<!-- 7 -->
<g id="node8" class="node">
<title>7</title>
<ellipse fill="none" stroke="#000000" cx="107.6442" cy="-296.7401" rx="27" ry="18"/>
<text text-anchor="middle" x="107.6442" y="-293.0401" font-family="Times,serif" font-size="14.00" fill="#000000">b;</text>
</g>
<!-- 4&#45;&gt;7 -->
<g id="edge9" class="edge">
<title>4&#45;&gt;7</title>
<path fill="none" stroke="#000000" d="M137.6995,-385.6343C132.0194,-368.8343 123.3752,-343.2674 116.8128,-323.8581"/>
<polygon fill="#000000" stroke="#000000" points="120.1163,-322.7008 113.5977,-314.3487 113.485,-324.9429 120.1163,-322.7008"/>
<text text-anchor="middle" x="129.1442" y="-336.5401" font-family="Times,serif" font-size="14.00" fill="#000000">T</text>
</g>
<!-- 10 -->
<g id="node9" class="node">
<title>10</title>
<ellipse fill="none" stroke="#000000" cx="179.6442" cy="-296.7401" rx="27" ry="18"/>
<text text-anchor="middle" x="179.6442" y="-293.0401" font-family="Times,serif" font-size="14.00" fill="#000000">a;</text>
</g>
<!-- 4&#45;&gt;10 -->
<g id="edge10" class="edge">
<title>4&#45;&gt;10</title>
<path fill="none" stroke="#000000" d="M149.5888,-385.6343C155.269,-368.8343 163.9132,-343.2674 170.4755,-323.8581"/>
<polygon fill="#000000" stroke="#000000" points="173.8033,-324.9429 173.6907,-314.3487 167.1721,-322.7008 173.8033,-324.9429"/>
<text text-anchor="middle" x="171.6442" y="-336.5401" font-family="Times,serif" font-size="14.00" fill="#000000">F</text>
</g>
<!-- 7&#45;&gt;3 -->
<g id="edge11" class="edge">
<title>7&#45;&gt;3</title>
<path fill="none" stroke="#000000" d="M120.8501,-280.783C131.7428,-267.6209 147.3653,-248.7437 159.7689,-233.756"/>
<polygon fill="#000000" stroke="#000000" points="162.5988,-235.8262 166.2782,-225.8907 157.2061,-231.3632 162.5988,-235.8262"/>
</g>
<!-- 10&#45;&gt;3 -->
<g id="edge12" class="edge">
<title>10&#45;&gt;3</title>
<path fill="none" stroke="#000000" d="M179.6442,-278.7137C179.6442,-266.9319 179.6442,-251.3008 179.6442,-237.8982"/>
<polygon fill="#000000" stroke="#000000" points="183.1443,-237.7434 179.6442,-227.7435 176.1443,-237.7435 183.1443,-237.7434"/>
</g>
<!-- 5 -->
<g id="node10" class="node">
<title>5</title>
<ellipse fill="none" stroke="#000000" cx="199.6442" cy="-509.6934" rx="64.9885" ry="18"/>
<text text-anchor="middle" x="199.6442" y="-505.9934" font-family="Times,serif" font-size="14.00" fill="#000000">(a&gt;0)&amp;&amp;(b&gt;0)</text>
</g>
<!-- 5&#45;&gt;4 -->
<g id="edge14" class="edge">
<title>5&#45;&gt;4</title>
<path fill="none" stroke="#000000" d="M190.1445,-491.6311C181.134,-474.4988 167.497,-448.5698 157.3177,-429.2152"/>
<polygon fill="#000000" stroke="#000000" points="160.3864,-427.5307 152.6338,-420.3093 154.191,-430.7891 160.3864,-427.5307"/>
<text text-anchor="middle" x="184.6442" y="-462.4934" font-family="Times,serif" font-size="14.00" fill="#000000">F</text>
</g>
<!-- 8 -->
<g id="node11" class="node">
<title>8</title>
<ellipse fill="none" stroke="#000000" cx="232.6442" cy="-403.2168" rx="43.6818" ry="37.4533"/>
<text text-anchor="middle" x="232.6442" y="-414.5168" font-family="Times,serif" font-size="14.00" fill="#000000">t:=a;</text>
<text text-anchor="middle" x="232.6442" y="-399.5168" font-family="Times,serif" font-size="14.00" fill="#000000">a:=b;</text>
<text text-anchor="middle" x="232.6442" y="-384.5168" font-family="Times,serif" font-size="14.00" fill="#000000">b:=t%b;</text>
</g>
<!-- 5&#45;&gt;8 -->
<g id="edge13" class="edge">
<title>5&#45;&gt;8</title>
<path fill="none" stroke="#000000" d="M205.2422,-491.6311C208.8625,-479.95 213.7502,-464.1795 218.3953,-449.1917"/>
<polygon fill="#000000" stroke="#000000" points="221.7797,-450.0943 221.397,-439.5064 215.0935,-448.022 221.7797,-450.0943"/>
<text text-anchor="middle" x="220.1442" y="-462.4934" font-family="Times,serif" font-size="14.00" fill="#000000">T</text>
</g>
<!-- 8&#45;&gt;5 -->
<g id="edge15" class="edge">
<title>8&#45;&gt;5</title>
<path fill="none" stroke="#000000" d="M219.9514,-439.2195C217.7771,-445.6805 215.593,-452.3695 213.6442,-458.6934 211.339,-466.1737 209.0165,-474.3276 206.944,-481.877"/>
<polygon fill="#000000" stroke="#000000" points="203.5258,-481.1101 204.2978,-491.6768 210.2837,-482.935 203.5258,-481.1101"/>
</g>
</g>
</svg>
